<svg id="outline" height="512" viewBox="0 0 512 512" width="512" xmlns="http://www.w3.org/2000/svg"><path d="m96 496h256a40.04521 40.04521 0 0 0 40-40v-32h24a40.04521 40.04521 0 0 0 40-40v-249.98926a40.11148 40.11148 0 0 0 -12.86865-29.39209l-84.51172-78.01074a39.88956 39.88956 0 0 0 -27.13135-10.60791h-131.48828a40.04521 40.04521 0 0 0 -40 40v32h-64a40.04521 40.04521 0 0 0 -40 40v328a40.04521 40.04521 0 0 0 40 40zm80-440a24.02687 24.02687 0 0 1 24-24h131.48828a24.09641 24.09641 0 0 1 4.51172.42694v55.57306a40.04521 40.04521 0 0 0 40 40h24v-16h-24a24.02687 24.02687 0 0 1 -24-24v-45.728l80.27881 74.10346a24.06712 24.06712 0 0 1 7.72119 17.63528v249.98926a24.02687 24.02687 0 0 1 -24 24h-24v-201.98926a40.11148 40.11148 0 0 0 -12.86865-29.39209l-84.51172-78.01074a39.88956 39.88956 0 0 0 -27.13135-10.60791h-91.48828zm-104 72a24.02687 24.02687 0 0 1 24-24h171.48828a24.09641 24.09641 0 0 1 4.51172.42694v55.57306a40.04521 40.04521 0 0 0 40 40h24v-16h-24a24.02687 24.02687 0 0 1 -24-24v-45.728l80.27881 74.10346a24.06712 24.06712 0 0 1 7.72119 17.63528v249.98926a24.02687 24.02687 0 0 1 -24 24h-256a24.02687 24.02687 0 0 1 -24-24z"/><path d="m160 160h64v16h-64z"/><path d="m112 160h24v16h-24z"/><path d="m192 208h32v16h-32z"/><path d="m248 256h88v16h-88z"/><path d="m168 256h56v16h-56z"/><path d="m112 256h32v16h-32z"/><path d="m224 304h112v16h-112z"/><path d="m112 304h88v16h-88z"/><path d="m288 352h48v16h-48z"/><path d="m168 352h96v16h-96z"/><path d="m112 352h32v16h-32z"/><path d="m208 400h128v16h-128z"/><path d="m112 400h72v16h-72z"/><path d="m112 208h56v16h-56z"/></svg>