<?xml version="1.0" encoding="UTF-8"?><!DOCTYPE svg PUBLIC "-//W3C//DTD SVG 1.1//EN" "http://www.w3.org/Graphics/SVG/1.1/DTD/svg11.dtd"><svg xmlns="http://www.w3.org/2000/svg" xmlns:xlink="http://www.w3.org/1999/xlink" version="1.1" width="16" height="16" viewBox="0 0 16 16"><path fill="#444" d="M8.1 14l6.4-7.2c.6-.7.6-1.8-.1-2.5l-2.7-2.7c-.3-.4-.8-.6-1.3-.6H8.6c-.5 0-1 .2-1.4.6L.5 9.2c-.6.7-.6 1.9.1 2.5l2.7 2.7c.3.4.8.6 1.3.6H16v-1H8.1zm-1.3-.1s0-.1 0 0l-2.7-2.7c-.4-.4-.4-.9 0-1.3L7.5 6h-1l-3 3.3c-.6.7-.6 1.7.1 2.4L5.9 14H4.6c-.2 0-.4-.1-.6-.2L1.2 11c-.3-.3-.3-.8 0-1.1L4.7 6h1.8L10 2h1L7.5 6l3.1 3.7-3.5 4c-.1.1-.2.1-.3.2z"/><metadata><rdf:RDF xmlns:rdf="http://www.w3.org/1999/02/22-rdf-syntax-ns#" xmlns:rdfs="http://www.w3.org/2000/01/rdf-schema#" xmlns:dc="http://purl.org/dc/elements/1.1/"><rdf:Description about="https://iconscout.com/legal#licenses" dc:title="eraser" dc:description="eraser" dc:publisher="Iconscout" dc:date="2017-09-19" dc:format="image/svg+xml" dc:language="en"><dc:creator><rdf:Bag><rdf:li>Vaadin Icons</rdf:li></rdf:Bag></dc:creator></rdf:Description></rdf:RDF></metadata></svg>