<?xml version="1.0" encoding="iso-8859-1"?>
<!-- Generator: Adobe Illustrator 18.0.0, SVG Export Plug-In . SVG Version: 6.00 Build 0)  -->
<!DOCTYPE svg PUBLIC "-//W3C//DTD SVG 1.1//EN" "http://www.w3.org/Graphics/SVG/1.1/DTD/svg11.dtd">
<svg version="1.1" id="Capa_1" xmlns="http://www.w3.org/2000/svg" xmlns:xlink="http://www.w3.org/1999/xlink" x="0px" y="0px"
	 viewBox="0 0 242.559 242.559" style="enable-background:new 0 0 242.559 242.559;" xml:space="preserve">
<path d="M225.588,109.84v-15h-22.963l-69.432-69.433l6.246-6.245L128.832,8.555l-90.26,90.26
	c-5.329-0.259-12.768,1.024-19.573,6.588c-15.775,12.896-21.771,42.64-17.822,88.402l14.944-1.289
	c-3.246-37.61,1.021-57.079,6.08-67.145l5.515,5.515l6.246-6.246l109.366,109.365l99.231-99.23l-24.934-24.934H225.588z
	 M221.346,134.774l-78.018,78.018l-98.759-98.759l78.018-78.018l58.826,58.826h-45.471c-1.085-3.018-2.81-5.855-5.224-8.269
	c-4.25-4.249-9.9-6.59-15.91-6.589c-6.01,0-11.66,2.34-15.91,6.589c-8.773,8.773-8.773,23.047,0,31.82
	c4.25,4.249,9.9,6.59,15.91,6.59c6.01,0,11.66-2.341,15.911-6.591c2.488-2.489,4.245-5.428,5.322-8.551l60.372-0.001
	L221.346,134.774z M120.113,107.785c-1.417,1.417-3.301,2.197-5.304,2.197s-3.887-0.78-5.303-2.197
	c-2.924-2.924-2.924-7.682,0-10.605c1.417-1.417,3.3-2.196,5.303-2.196s3.887,0.779,5.303,2.195
	C123.035,100.104,123.035,104.861,120.113,107.785z"/>
<g>
</g>
<g>
</g>
<g>
</g>
<g>
</g>
<g>
</g>
<g>
</g>
<g>
</g>
<g>
</g>
<g>
</g>
<g>
</g>
<g>
</g>
<g>
</g>
<g>
</g>
<g>
</g>
<g>
</g>
</svg>
